
<svg width="208px" height="16px" viewBox="0 0 208 16" version="1.1" xmlns="http://www.w3.org/2000/svg" xmlns:xlink="http://www.w3.org/1999/xlink">
    <!-- Generator: Sketch 50.2 (55047) - http://www.bohemiancoding.com/sketch -->
    <desc>Created with Sketch.</desc>
    <defs></defs>
    <g id="Page-1" stroke="none" stroke-width="1" fill="none" fill-rule="evenodd">
        <path d="M38.3955078,12.3828125 C38.2431633,12.564454 38.0351576,12.7592763 37.7714844,12.9672852 C37.5078112,13.175294 37.1767598,13.3686515 36.7783203,13.5473633 C36.3798808,13.7260751 35.9096707,13.8754877 35.3676758,13.9956055 C34.8256809,14.1157233 34.2031285,14.1757812 33.5,14.1757812 C32.673824,14.1757812 31.919437,14.0395521 31.2368164,13.7670898 C30.5541958,13.4946275 29.969729,13.0947292 29.4833984,12.5673828 C28.9970679,12.0400364 28.6206068,11.392582 28.3540039,10.625 C28.087401,9.85741804 27.9541016,8.97852058 27.9541016,7.98828125 L27.9541016,7.23242188 C27.9541016,6.24218255 28.0815417,5.36182026 28.3364258,4.59130859 C28.5913099,3.82079693 28.9516578,3.17187764 29.4174805,2.64453125 C29.8833031,2.11718486 30.4472623,1.71582169 31.109375,1.44042969 C31.7714877,1.16503769 32.5068319,1.02734375 33.3154297,1.02734375 C34.1474651,1.02734375 34.8666962,1.13134662 35.4731445,1.33935547 C36.0795929,1.54736432 36.5864237,1.83886531 36.9936523,2.21386719 C37.4008809,2.58886906 37.7187489,3.03710677 37.9472656,3.55859375 C38.1757824,4.08008073 38.325195,4.65136408 38.3955078,5.27246094 L35.8291016,5.27246094 C35.7763669,4.9501937 35.6943365,4.65869271 35.5830078,4.39794922 C35.4716791,4.13720573 35.3193369,3.9145517 35.1259766,3.72998047 C34.9326162,3.54540923 34.6938491,3.40332081 34.409668,3.30371094 C34.1254869,3.20410106 33.7871113,3.15429688 33.3945312,3.15429688 C32.492183,3.15429688 31.806643,3.49560206 31.3378906,4.17822266 C30.8691383,4.86084326 30.6347656,5.87304017 30.6347656,7.21484375 L30.6347656,7.98828125 C30.6347656,9.33008483 30.8896459,10.3437466 31.3994141,11.0292969 C31.9091822,11.7148472 32.6562451,12.0576172 33.640625,12.0576172 C33.9570328,12.0576172 34.2324207,12.0371096 34.4667969,11.9960938 C34.701173,11.9550779 34.9018546,11.9038089 35.0688477,11.8422852 C35.2358407,11.7807614 35.3749994,11.7133793 35.4863281,11.6401367 C35.5976568,11.5668942 35.6884762,11.4951175 35.7587891,11.4248047 L35.7587891,9.21875 L33.359375,9.21875 L33.359375,7.27636719 L38.3955078,7.27636719 L38.3955078,12.3828125 Z M46.2685547,9.31542969 L44.1679688,9.31542969 L44.1679688,14 L41.53125,14 L41.53125,1.203125 L46.2861328,1.203125 C47.0244178,1.203125 47.6865205,1.28662026 48.2724609,1.45361328 C48.8584014,1.6206063 49.3535136,1.86669759 49.7578125,2.19189453 C50.1621114,2.51709147 50.4726552,2.91991947 50.6894531,3.40039062 C50.9062511,3.88086178 51.0146484,4.43749684 51.0146484,5.0703125 C51.0146484,5.53906484 50.9619146,5.9594708 50.8564453,6.33154297 C50.750976,6.70361514 50.5986338,7.03466652 50.3994141,7.32470703 C50.2001943,7.61474754 49.9599623,7.86816298 49.6787109,8.08496094 C49.3974595,8.3017589 49.0810564,8.48925702 48.7294922,8.64746094 L51.4980469,13.8769531 L51.4980469,14 L48.6679688,14 L46.2685547,9.31542969 Z M44.1679688,7.1796875 L46.2949219,7.1796875 C46.6406267,7.1796875 46.9438464,7.1342778 47.2045898,7.04345703 C47.4653333,6.95263626 47.682128,6.8237313 47.8549805,6.65673828 C48.0278329,6.48974526 48.1582027,6.2905285 48.2460938,6.05908203 C48.3339848,5.82763556 48.3779297,5.56836081 48.3779297,5.28125 C48.3779297,4.67773136 48.2065447,4.20312673 47.8637695,3.85742188 C47.5209944,3.51171702 46.9951207,3.33886719 46.2861328,3.33886719 L44.1679688,3.33886719 L44.1679688,7.1796875 Z M61.7177734,8.45410156 L56.6552734,8.45410156 L56.6552734,11.8818359 L62.5966797,11.8818359 L62.5966797,14 L54.0185547,14 L54.0185547,1.203125 L62.5791016,1.203125 L62.5791016,3.33886719 L56.6552734,3.33886719 L56.6552734,6.38867188 L61.7177734,6.38867188 L61.7177734,8.45410156 Z M72.8427734,8.45410156 L67.7802734,8.45410156 L67.7802734,11.8818359 L73.7216797,11.8818359 L73.7216797,14 L65.1435547,14 L65.1435547,1.203125 L73.7041016,1.203125 L73.7041016,3.33886719 L67.7802734,3.33886719 L67.7802734,6.38867188 L72.8427734,6.38867188 L72.8427734,8.45410156 Z M86.6748047,14 L84.0380859,14 L78.9052734,5.58007812 L78.9052734,14 L76.2685547,14 L76.2685547,1.203125 L78.9052734,1.203125 L84.046875,9.640625 L84.046875,1.203125 L86.6748047,1.203125 L86.6748047,14 Z M89.9775391,14 L89.9775391,1.203125 L93.9150391,1.203125 C94.7763715,1.203125 95.5659144,1.35107274 96.2836914,1.64697266 C97.0014684,1.94287257 97.6166967,2.35888404 98.1293945,2.89501953 C98.6420924,3.43115502 99.0419908,4.074215 99.3291016,4.82421875 C99.6162124,5.5742225 99.7597656,6.40624543 99.7597656,7.3203125 L99.7597656,7.90039062 C99.7597656,8.8144577 99.6176772,9.6450158 99.3334961,10.3920898 C99.049315,11.1391639 98.6479518,11.780759 98.1293945,12.3168945 C97.6108373,12.85303 96.9912145,13.2675767 96.2705078,13.5605469 C95.5498011,13.8535171 94.7558637,14 93.8886719,14 L89.9775391,14 Z M92.6142578,3.33886719 L92.6142578,11.8818359 L93.8886719,11.8818359 C94.9316458,11.8818359 95.7255832,11.5376011 96.2705078,10.8491211 C96.8154324,10.1606411 97.0878906,9.17774076 97.0878906,7.90039062 L97.0878906,7.30273438 C97.0878906,6.00194662 96.8183621,5.01611664 96.2792969,4.34521484 C95.7402317,3.67431305 94.9521536,3.33886719 93.9150391,3.33886719 L92.6142578,3.33886719 Z M110.375,8.45410156 L105.3125,8.45410156 L105.3125,11.8818359 L111.253906,11.8818359 L111.253906,14 L102.675781,14 L102.675781,1.203125 L111.236328,1.203125 L111.236328,3.33886719 L105.3125,3.33886719 L105.3125,6.38867188 L110.375,6.38867188 L110.375,8.45410156 Z M116.4375,11.8818359 L122.036133,11.8818359 L122.036133,14 L113.800781,14 L113.800781,1.203125 L116.4375,1.203125 L116.4375,11.8818359 Z M127.18457,11.8818359 L132.783203,11.8818359 L132.783203,14 L124.547852,14 L124.547852,1.203125 L127.18457,1.203125 L127.18457,11.8818359 Z M138.212891,10.8271484 L141.113281,1.203125 L144.048828,1.203125 L139.592773,14 L136.841797,14 L132.40332,1.203125 L135.330078,1.203125 L138.212891,10.8271484 Z M149.056641,14 L146.419922,14 L146.419922,1.203125 L149.056641,1.203125 L149.056641,14 Z M159.135742,10.6425781 C159.135742,10.4199208 159.103516,10.2192392 159.039062,10.0405273 C158.974609,9.86181551 158.850099,9.69628982 158.665527,9.54394531 C158.480956,9.3916008 158.226076,9.24218823 157.900879,9.09570312 C157.575682,8.94921802 157.155276,8.79394613 156.639648,8.62988281 C156.053708,8.44238188 155.501467,8.23144648 154.98291,7.99707031 C154.464353,7.76269414 154.010256,7.48584144 153.620605,7.16650391 C153.230955,6.84716637 152.923341,6.47949427 152.697754,6.06347656 C152.472167,5.64745886 152.359375,5.1611356 152.359375,4.60449219 C152.359375,4.0712864 152.475096,3.58349831 152.706543,3.14111328 C152.937989,2.69872826 153.263181,2.32226718 153.682129,2.01171875 C154.101076,1.70117032 154.599118,1.45947352 155.17627,1.28662109 C155.753421,1.11376867 156.387692,1.02734375 157.079102,1.02734375 C157.788089,1.02734375 158.432614,1.1254873 159.012695,1.32177734 C159.592776,1.51806739 160.087889,1.79199043 160.498047,2.14355469 C160.908205,2.49511895 161.224608,2.91259524 161.447266,3.39599609 C161.669923,3.87939695 161.78125,4.40820025 161.78125,4.98242188 L159.144531,4.98242188 C159.144531,4.71288928 159.102051,4.46386833 159.01709,4.23535156 C158.932128,4.00683479 158.801759,3.8105477 158.625977,3.64648438 C158.450194,3.48242105 158.23047,3.35498092 157.966797,3.26416016 C157.703124,3.17333939 157.39258,3.12792969 157.035156,3.12792969 C156.689451,3.12792969 156.389161,3.16601524 156.134277,3.2421875 C155.879393,3.31835976 155.668458,3.42382745 155.501465,3.55859375 C155.334472,3.69336005 155.208497,3.85156159 155.123535,4.03320312 C155.038574,4.21484466 154.996094,4.4082021 154.996094,4.61328125 C154.996094,5.03515836 155.211424,5.38818217 155.64209,5.67236328 C156.072756,5.95654439 156.704097,6.22167846 157.536133,6.46777344 C158.233402,6.6845714 158.847165,6.92480337 159.377441,7.18847656 C159.907717,7.45214976 160.350096,7.75097489 160.70459,8.08496094 C161.059084,8.41894698 161.327148,8.79394323 161.508789,9.20996094 C161.690431,9.62597864 161.78125,10.0976536 161.78125,10.625 C161.78125,11.1875028 161.671388,11.6884744 161.45166,12.1279297 C161.231932,12.567385 160.919924,12.9379868 160.515625,13.2397461 C160.111326,13.5415054 159.623538,13.7729484 159.052246,13.934082 C158.480954,14.0952156 157.843754,14.1757812 157.140625,14.1757812 C156.718748,14.1757812 156.296877,14.1391605 155.875,14.065918 C155.453123,13.9926754 155.050295,13.8798836 154.666504,13.7275391 C154.282713,13.5751946 153.926759,13.3847668 153.598633,13.15625 C153.270506,12.9277332 152.984864,12.6582047 152.741699,12.3476562 C152.498534,12.0371078 152.308106,11.684084 152.17041,11.2885742 C152.032714,10.8930644 151.963867,10.4550805 151.963867,9.97460938 L154.609375,9.97460938 C154.609375,10.3613301 154.670898,10.6894518 154.793945,10.9589844 C154.916993,11.228517 155.088378,11.4467765 155.308105,11.6137695 C155.527833,11.7807626 155.792967,11.9023434 156.103516,11.9785156 C156.414064,12.0546879 156.759764,12.0927734 157.140625,12.0927734 C157.48047,12.0927734 157.776366,12.0561527 158.02832,11.9829102 C158.280275,11.9096676 158.48828,11.8085944 158.652344,11.6796875 C158.816407,11.5507806 158.937988,11.3969735 159.01709,11.2182617 C159.096192,11.0395499 159.135742,10.8476573 159.135742,10.6425781 Z M167.369141,14 L164.732422,14 L164.732422,1.203125 L167.369141,1.203125 L167.369141,14 Z M181.324219,7.89160156 C181.324219,8.87012208 181.192384,9.74755471 180.928711,10.5239258 C180.665038,11.3002969 180.294436,11.9580051 179.816895,12.4970703 C179.339353,13.0361355 178.766605,13.4506821 178.098633,13.7407227 C177.430661,14.0307632 176.695317,14.1757812 175.892578,14.1757812 C175.08984,14.1757812 174.354496,14.0307632 173.686523,13.7407227 C173.018551,13.4506821 172.442874,13.0361355 171.959473,12.4970703 C171.476072,11.9580051 171.099611,11.3002969 170.830078,10.5239258 C170.560546,9.74755471 170.425781,8.87012208 170.425781,7.89160156 L170.425781,7.32910156 C170.425781,6.35644045 170.559081,5.48047265 170.825684,4.70117188 C171.092286,3.9218711 171.465818,3.25976835 171.946289,2.71484375 C172.42676,2.16991915 173.000973,1.75244286 173.668945,1.46240234 C174.336917,1.17236183 175.072262,1.02734375 175.875,1.02734375 C176.677738,1.02734375 177.413083,1.17236183 178.081055,1.46240234 C178.749027,1.75244286 179.32324,2.16991915 179.803711,2.71484375 C180.284182,3.25976835 180.657714,3.9218711 180.924316,4.70117188 C181.190919,5.48047265 181.324219,6.35644045 181.324219,7.32910156 L181.324219,7.89160156 Z M178.652344,7.31152344 C178.652344,5.96971985 178.412112,4.9501988 177.931641,4.25292969 C177.451169,3.55566058 176.765629,3.20703125 175.875,3.20703125 C174.984371,3.20703125 174.298831,3.55566058 173.818359,4.25292969 C173.337888,4.9501988 173.097656,5.96971985 173.097656,7.31152344 L173.097656,7.89160156 C173.097656,8.55957365 173.160644,9.14989978 173.286621,9.66259766 C173.412598,10.1752955 173.594237,10.6059553 173.831543,10.9545898 C174.068849,11.3032244 174.36035,11.5668936 174.706055,11.7456055 C175.05176,11.9243173 175.447263,12.0136719 175.892578,12.0136719 C176.783208,12.0136719 177.465818,11.6621129 177.94043,10.9589844 C178.415041,10.2558559 178.652344,9.23340515 178.652344,7.89160156 L178.652344,7.31152344 Z M194.646484,14 L192.009766,14 L186.876953,5.58007812 L186.876953,14 L184.240234,14 L184.240234,1.203125 L186.876953,1.203125 L192.018555,9.640625 L192.018555,1.203125 L194.646484,1.203125 L194.646484,14 Z M204.584961,10.6425781 C204.584961,10.4199208 204.552735,10.2192392 204.488281,10.0405273 C204.423828,9.86181551 204.299317,9.69628982 204.114746,9.54394531 C203.930175,9.3916008 203.675295,9.24218823 203.350098,9.09570312 C203.024901,8.94921802 202.604495,8.79394613 202.088867,8.62988281 C201.502927,8.44238188 200.950686,8.23144648 200.432129,7.99707031 C199.913572,7.76269414 199.459475,7.48584144 199.069824,7.16650391 C198.680174,6.84716637 198.37256,6.47949427 198.146973,6.06347656 C197.921386,5.64745886 197.808594,5.1611356 197.808594,4.60449219 C197.808594,4.0712864 197.924315,3.58349831 198.155762,3.14111328 C198.387208,2.69872826 198.7124,2.32226718 199.131348,2.01171875 C199.550295,1.70117032 200.048337,1.45947352 200.625488,1.28662109 C201.20264,1.11376867 201.836911,1.02734375 202.52832,1.02734375 C203.237308,1.02734375 203.881833,1.1254873 204.461914,1.32177734 C205.041995,1.51806739 205.537107,1.79199043 205.947266,2.14355469 C206.357424,2.49511895 206.673827,2.91259524 206.896484,3.39599609 C207.119142,3.87939695 207.230469,4.40820025 207.230469,4.98242188 L204.59375,4.98242188 C204.59375,4.71288928 204.55127,4.46386833 204.466309,4.23535156 C204.381347,4.00683479 204.250977,3.8105477 204.075195,3.64648438 C203.899413,3.48242105 203.679689,3.35498092 203.416016,3.26416016 C203.152342,3.17333939 202.841799,3.12792969 202.484375,3.12792969 C202.13867,3.12792969 201.83838,3.16601524 201.583496,3.2421875 C201.328612,3.31835976 201.117677,3.42382745 200.950684,3.55859375 C200.783691,3.69336005 200.657715,3.85156159 200.572754,4.03320312 C200.487793,4.21484466 200.445312,4.4082021 200.445312,4.61328125 C200.445312,5.03515836 200.660642,5.38818217 201.091309,5.67236328 C201.521975,5.95654439 202.153316,6.22167846 202.985352,6.46777344 C203.682621,6.6845714 204.296384,6.92480337 204.82666,7.18847656 C205.356936,7.45214976 205.799315,7.75097489 206.153809,8.08496094 C206.508303,8.41894698 206.776366,8.79394323 206.958008,9.20996094 C207.139649,9.62597864 207.230469,10.0976536 207.230469,10.625 C207.230469,11.1875028 207.120607,11.6884744 206.900879,12.1279297 C206.681151,12.567385 206.369143,12.9379868 205.964844,13.2397461 C205.560545,13.5415054 205.072757,13.7729484 204.501465,13.934082 C203.930173,14.0952156 203.292972,14.1757812 202.589844,14.1757812 C202.167967,14.1757812 201.746096,14.1391605 201.324219,14.065918 C200.902342,13.9926754 200.499514,13.8798836 200.115723,13.7275391 C199.731932,13.5751946 199.375978,13.3847668 199.047852,13.15625 C198.719725,12.9277332 198.434083,12.6582047 198.190918,12.3476562 C197.947753,12.0371078 197.757325,11.684084 197.619629,11.2885742 C197.481933,10.8930644 197.413086,10.4550805 197.413086,9.97460938 L200.058594,9.97460938 C200.058594,10.3613301 200.120117,10.6894518 200.243164,10.9589844 C200.366212,11.228517 200.537597,11.4467765 200.757324,11.6137695 C200.977052,11.7807626 201.242186,11.9023434 201.552734,11.9785156 C201.863283,12.0546879 202.208982,12.0927734 202.589844,12.0927734 C202.929689,12.0927734 203.225585,12.0561527 203.477539,11.9829102 C203.729493,11.9096676 203.937499,11.8085944 204.101562,11.6796875 C204.265626,11.5507806 204.387207,11.3969735 204.466309,11.2182617 C204.545411,11.0395499 204.584961,10.8476573 204.584961,10.6425781 Z" id="greendellvisions" fill="#6BAF20"></path>
        <g id="ic-remove-red-eye-24px.1" transform="translate(-1.000000, -4.000000)">
            <polygon id="Shape" points="0 0 24 0 24 24 0 24"></polygon>
            <path d="M12,4.5 C7,4.5 2.73,7.61 1,12 C2.73,16.39 7,19.5 12,19.5 C17,19.5 21.27,16.39 23,12 C21.27,7.61 17,4.5 12,4.5 Z M12,17 C9.24,17 7,14.76 7,12 C7,9.24 9.24,7 12,7 C14.76,7 17,9.24 17,12 C17,14.76 14.76,17 12,17 Z M12,9 C10.34,9 9,10.34 9,12 C9,13.66 10.34,15 12,15 C13.66,15 15,13.66 15,12 C15,10.34 13.66,9 12,9 Z" id="Shape" fill="#6BAF20" fill-rule="nonzero"></path>
        </g>
    </g>
</svg>